<svg xmlns="http://www.w3.org/2000/svg" viewBox="0 0 16.04 17.2"><defs><style>.cls-1{fill:#ffc107;}.cls-2{fill:none;}.cls-3{fill:#bdbdbd;}</style></defs><title>3</title><g id="Layer_2" data-name="Layer 2"><g id="Layer_1-2" data-name="Layer 1"><path class="cls-1" d="M8.08,1.51,9.83,5.19l4.28.66a.77.77,0,0,1,.42,1.33l-3,2.84.66,4.28a.73.73,0,0,1-1.09.78L7.54,13.16l-3.86,2a.75.75,0,0,1-1.09-.84l.72-4L.24,7.25A.77.77,0,0,1,.66,5.92l4-.54,2-3.86A.79.79,0,0,1,8.08,1.51Z"/><path class="cls-2" d="M7.2,0V1.19a.77.77,0,0,1,1,.31L10,5.15l4.21.66a.76.76,0,0,1,.42,1.32l-2.9,2.81.65,4.25a.72.72,0,0,1-1.07.78L7.7,13.05l-.5.26V17.2H16V0Z"/><path class="cls-3" d="M11.26,15.07a.72.72,0,0,0,1.07-.78L11.68,10,14.6,7.17a.77.77,0,0,0-.42-1.33L9.95,5.18,8.22,1.51a.78.78,0,0,0-1-.31V13.4l.51-.26Z"/></g></g></svg>