<?xml version="1.0" encoding="utf-8"?>
<!-- Generator: Adobe Illustrator 21.0.0, SVG Export Plug-In . SVG Version: 6.00 Build 0)  -->
<svg version="1.1" id="Layer_1" xmlns="http://www.w3.org/2000/svg" xmlns:xlink="http://www.w3.org/1999/xlink" x="0px" y="0px"
	 viewBox="0 0 15.1 14.4" style="enable-background:new 0 0 15.1 14.4;" xml:space="preserve">
<style type="text/css">
	.st0{fill:#CFD8DC;}
</style>
<title>star-on</title>
<g id="Layer_2">
	<g id="Layer_1-2">
		<path class="st0" d="M14.8,5.6c-0.1-0.2-0.2-0.3-0.4-0.3L10,4.6l-2-4C7.9,0.3,7.6,0.2,7.3,0.2C7.2,0.3,7.1,0.4,7,0.6l-2,4L0.7,5.2
			c-0.3,0-0.5,0.3-0.5,0.6c0,0.1,0.1,0.2,0.2,0.3l3.2,3.1l-0.8,4.4c-0.1,0.3,0.1,0.6,0.4,0.6c0.1,0,0.2,0,0.3-0.1L7.6,12l3.9,2.1
			c0.1,0,0.2,0.1,0.3,0.1s0.2,0,0.3-0.1c0.2-0.1,0.2-0.3,0.2-0.5l-0.8-4.4l3.2-3.1C14.8,6,14.9,5.8,14.8,5.6z"/>
	</g>
</g>
</svg>
