<?xml version="1.0" encoding="utf-8"?>
<!-- Generator: Adobe Illustrator 22.0.1, SVG Export Plug-In . SVG Version: 6.00 Build 0)  -->
<svg version="1.1" id="Layer_1" xmlns="http://www.w3.org/2000/svg" xmlns:xlink="http://www.w3.org/1999/xlink" x="0px" y="0px"
	 viewBox="0 0 500 500" style="enable-background:new 0 0 500 500;" xml:space="preserve">
<style type="text/css">
	.st0{fill:#03A9F4;}
	.st1{fill:#FFFFFF;}
	.st2{fill:#198906;}
	.st3{fill:#CE1111;}
	.st4{fill:#F49314;}
</style>
<path class="st0" d="M31.3,7.7L31.3,7.7l-6.4-6.3c-0.5-0.5-1.2-0.5-1.7,0s-0.5,1.2,0,1.7l4.3,4.3H1.7C1,7.4,0.5,7.9,0.5,8.6
	S1,9.8,1.7,9.8h25.8l-4.3,4.3c-0.5,0.5-0.5,1.2,0,1.7c0.5,0.5,1.2,0.5,1.7,0l6.4-6.3l0,0C31.8,8.9,31.8,8.1,31.3,7.7"/>
<path class="st1" d="M73.9,14.5c0.4,0.4,0.4,1.1,0,1.6c-0.2,0.2-0.5,0.3-0.8,0.3s-0.6-0.1-0.8-0.3l-5.8-5.9l-5.8,5.9
	c-0.2,0.2-0.5,0.3-0.8,0.3s-0.6-0.1-0.8-0.3c-0.4-0.4-0.4-1.1,0-1.6L65,8.6l-5.7-5.8c-0.4-0.4-0.4-1.1,0-1.6c0.4-0.4,1.1-0.4,1.6,0
	L66.4,7l5.8-5.9c0.4-0.4,1.1-0.4,1.6,0c0.4,0.4,0.4,1.1,0,1.6L68,8.6L73.9,14.5z"/>
<g>
	<circle class="st2" cx="16" cy="72.7" r="12.5"/>
	<path class="st1" d="M21.3,67.9L14,75.2c-0.3,0.3-0.8,0.3-1.1,0L10.7,73c-0.3-0.3-0.8-0.3-1.1,0l0,0c-0.3,0.3-0.3,0.8,0,1.1
		l3.3,3.3c0.3,0.3,0.8,0.3,1.1,0l8.4-8.4c0.3-0.3,0.3-0.8,0-1.1l0,0C22.1,67.6,21.6,67.6,21.3,67.9z"/>
</g>
<g>
	<circle class="st3" cx="57" cy="72.7" r="12.5"/>
	<g>
		<path class="st1" d="M62.1,76.7c0.3,0.3,0.3,0.8,0,1.1c-0.1,0.1-0.3,0.2-0.5,0.2c-0.2,0-0.4-0.1-0.5-0.2l-4-4l-4,4
			c-0.1,0.1-0.3,0.2-0.5,0.2c-0.2,0-0.4-0.1-0.5-0.2c-0.3-0.3-0.3-0.8,0-1.1l4-4.1l-3.9-4c-0.3-0.3-0.3-0.8,0-1.1
			c0.3-0.3,0.8-0.3,1.1,0l3.9,4l4-4c0.3-0.3,0.8-0.3,1.1,0c0.3,0.3,0.3,0.8,0,1.1l-4,4.1L62.1,76.7z"/>
	</g>
</g>
<g>
	
		<ellipse transform="matrix(1.514618e-02 -0.9999 0.9999 1.514618e-02 30.0666 175.8283)" class="st4" cx="104.3" cy="72.7" rx="12.5" ry="12.5"/>
	<g>
		<path class="st1" d="M105.4,76.6v2.1h-2.1v-2.1H105.4z M105.3,66.6l-0.2,8.4h-1.6l-0.2-8.4H105.3z"/>
	</g>
</g>
</svg>
