<?xml version="1.0" encoding="utf-8"?>
<!-- Generator: Adobe Illustrator 22.0.1, SVG Export Plug-In . SVG Version: 6.00 Build 0)  -->
<svg version="1.1" id="Layer_1" xmlns="http://www.w3.org/2000/svg" xmlns:xlink="http://www.w3.org/1999/xlink" x="0px" y="0px"
	 viewBox="0 0 500 500" style="enable-background:new 0 0 500 500;" xml:space="preserve">
<style type="text/css">
	.st0{fill:#FFC107;}
	.st1{fill:#FFFFFF;}
	.st2{fill:#4CAF50;}
</style>
<g>
	<polygon class="st0" points="13.7,13.2 15.2,13.2 15.2,19.1 16.7,19.1 16.7,13.2 18.2,13.2 18.2,11.7 13.7,11.7 	"/>
	<polygon class="st0" points="31.6,13.2 33.1,13.2 33.1,19.1 34.6,19.1 34.6,13.2 36.1,13.2 36.1,11.7 31.6,11.7 	"/>
	<path class="st0" d="M19.7,12.4v6c0,0.4,0.3,0.7,0.7,0.7h3.7v-1.5h-3v-1.5h3v-1.5h-3v-1.5h3v-1.5h-3.7C20,11.7,19.7,12,19.7,12.4"
		/>
	<path class="st0" d="M25.7,13.9c0,1.2,1,2.2,2.2,2.2c0.4,0,0.7,0.3,0.7,0.7s-0.3,0.7-0.7,0.7h-2.2V19h2.2c1.2,0,2.2-1,2.2-2.2
		s-1-2.2-2.2-2.2c-0.4,0-0.7-0.3-0.7-0.7s0.3-0.7,0.7-0.7h2.2v-1.5h-2.2C26.7,11.7,25.7,12.7,25.7,13.9"/>
	<path class="st0" d="M11.5,22.1h26.9c0.4,0,0.7-0.3,0.7-0.7v-12c0-0.4-0.3-0.7-0.7-0.7H11.5c-0.4,0-0.7,0.3-0.7,0.7v11.9
		C10.7,21.8,11.1,22.1,11.5,22.1 M12.2,10.2h25.4v10.4H12.2V10.2z"/>
	<path class="st0" d="M10.7,31.1h4.5c0.4,0,0.7-0.3,0.7-0.7v-4.2l2-2l-1.1-1.1l-2,2h-4.2c-0.4,0-0.7,0.3-0.7,0.7v4.5
		C10,30.7,10.3,31.1,10.7,31.1 M14.5,29.6h-1.9l1.9-1.9V29.6z M13.4,26.6l-1.9,1.9v-1.9H13.4z"/>
	<path class="st0" d="M15.2,40h-4.5c-0.4,0-0.7,0.3-0.7,0.7v4.5c0,0.4,0.3,0.7,0.7,0.7h4.5c0.4,0,0.7-0.3,0.7-0.7v-4.5
		C16,40.4,15.6,40,15.2,40 M14.5,44.5h-3v-3h3V44.5z"/>
	<path class="st0" d="M16.2,31.3l-1.3,1.3h-4.2c-0.4,0-0.7,0.3-0.7,0.7v4.5c0,0.4,0.3,0.7,0.7,0.7h4.5c0.4,0,0.7-0.3,0.7-0.7v-4.2
		l1.3-1.3L16.2,31.3z M13.4,34.1L11.5,36v-1.9H13.4z M14.5,37h-1.9l1.9-1.9V37z"/>
	<rect x="17.4" y="25.9" class="st0" width="21.6" height="1.5"/>
	<rect x="17.4" y="40.8" class="st0" width="9.7" height="1.5"/>
	<rect x="17.4" y="43.8" class="st0" width="21.6" height="1.5"/>
	<path class="st0" d="M53,21.6l-3-3c-0.3-0.3-0.8-0.3-1.1,0l0,0l-6.2,6.2V6.5c0-0.4-0.3-0.7-0.7-0.7H7.7C7.3,5.7,7,6,7,6.5v44.8
		C7,51.6,7.3,52,7.7,52H42c0.4,0,0.7-0.3,0.7-0.7V32.9L53,22.7C53.3,22.4,53.3,21.9,53,21.6L53,21.6 M31.9,38.4l1.4,1.4l-2.5,1.1
		L31.9,38.4z M32.7,37l13.9-13.9l1.9,1.9L34.6,39L32.7,37z M41.3,50.5H8.5V7.2h32.8v19.1l-2.5,2.5H17.4v1.5h19.8l-3,3H17.4v1.5h15.4
		l-1.5,1.5H17.4v1.5h13L28.7,42c-0.2,0.4,0,0.8,0.4,1c0.1,0,0.2,0.1,0.3,0.1c0.1,0,0.2,0,0.3-0.1l5.2-2.2c0.1,0,0.2-0.1,0.2-0.2
		l6.2-6.2V50.5z M49.5,24.1l-1.9-1.9l1.9-1.9l1.9,1.9L49.5,24.1z"/>
</g>
<g>
	<path class="st0" d="M126.2,8.5c-1.1,0-2.2,0.1-3.3,0.4c-2.8-2.2-6.4-3.4-10-3.5c-4.4,0-8.6,1.7-11.8,4.8
		c-3.2,3.1-4.9,7.3-4.9,11.7c0,1.1-0.3,2.2-0.8,3.2l-2.8,5.3c-0.5,0.9-0.4,1.9,0.1,2.7s1.4,1.3,2.3,1.4h1.2v4.2
		c0,2.5,2.1,4.6,4.6,4.6h3v1.2c0,2.1,1.7,3.8,3.8,3.8h13.1c2.1,0,3.8-1.7,3.8-3.8v-2.7c0-1.8,0.2-3.6,0.6-5.4c0.4,0,0.7,0,1.1,0
		c7.7,0,13.9-6.3,13.9-13.9C140.1,14.7,133.8,8.5,126.2,8.5 M121.7,41.7v2.7c0,0.6-0.5,1-1,1h-13.1c-0.6,0-1-0.5-1-1v-1.6
		c0-1.4-1.1-2.5-2.5-2.5h-3.3c-1,0-1.8-0.8-1.8-1.8v-4.6c0-1.4-1.1-2.5-2.5-2.5h-1.4l2.8-5.2c0.7-1.4,1.1-2.9,1.1-4.5
		c0-3.7,1.4-7.2,4.1-9.8c2.6-2.6,6.1-4,9.8-4c2.4,0,4.8,0.7,6.8,1.9c-4.4,2.3-7.5,7-7.5,12.3c0,6.3,4.3,11.7,10.1,13.4
		C121.9,37.8,121.7,39.7,121.7,41.7 M126.2,33.6c-6.1,0-11.1-5-11.1-11.1s5-11.1,11.1-11.1c6.1,0,11.1,5,11.1,11.1
		S132.3,33.6,126.2,33.6"/>
	<path class="st0" d="M126.4,13.7c-1.5-0.1-2.9,0.5-3.9,1.5c-0.5,0.5-0.5,1.4,0,2c0.5,0.5,1.4,0.5,2,0c0.5-0.5,1.1-0.7,1.8-0.7
		c1.2,0.1,2.1,1,2.2,2.2c0.1,1-0.5,2-1.5,2.4c-1.3,0.5-2.2,1.8-2.2,3.3c0,0.8,0.6,1.4,1.4,1.4s1.4-0.6,1.4-1.4
		c0-0.3,0.2-0.6,0.4-0.7c2.1-0.8,3.4-2.9,3.3-5.2C131.1,15.8,129,13.8,126.4,13.7"/>
	<path class="st0" d="M126.2,26.9c-0.8,0-1.4,0.6-1.4,1.4v1.5c0,0.8,0.6,1.4,1.4,1.4s1.4-0.6,1.4-1.4v-1.5
		C127.6,27.6,126.9,26.9,126.2,26.9"/>
</g>
<g>
	<path class="st0" d="M193.1,51.6h41.4c1.3,0,2.3-1,2.3-2.3v-1.2c0-0.6-0.5-1.1-1.1-1.1h-0.9c0.2-0.4,0.3-0.8,0.3-1.2V30.7
		c0-1.5-1.2-2.7-2.7-2.7H223c-0.4,0-0.7,0.3-0.7,0.7c0,0.4,0.3,0.7,0.7,0.7h9.4c0.7,0,1.3,0.6,1.3,1.3v15.1c0,0.5-0.3,1-0.8,1.2
		h-22.2c-0.5-0.2-0.8-0.7-0.8-1.2V30.7c0-0.7,0.6-1.3,1.3-1.3h8.5c0.4,0,0.7-0.3,0.7-0.7c0-0.4-0.3-0.7-0.7-0.7h-5.3v-1.9
		c1.7-1.2,2.8-3.1,3.1-5.2c1.9-0.2,3.3-1.7,3.3-3.4c0-1.2-0.6-2.3-1.6-3c0.1-0.2,0.2-0.5,0.2-0.8v-1.4c0-0.4-0.3-0.7-0.7-0.7
		s-0.7,0.3-0.7,0.7v1.4c0,0.3-0.3,0.6-0.6,0.6c-1,0-1.8-0.8-1.8-1.8c0-0.4-0.3-0.7-0.6-0.8c-0.4-0.1-0.8,0.1-1,0.4
		c-0.7,1.4-2.1,2.2-3.6,2.2h-8.3c-0.7,0-1.3-0.6-1.3-1.3V7.7c0-2.3,1.9-4.1,4.1-4.1h7.3c1.7,0,2,0.8,2.2,1.6c0.2,1,1.1,1.7,2.2,1.6
		c0.7-0.1,1.5,0.6,1.5,1.5v0.8c0,0.4,0.3,0.7,0.7,0.7s0.7-0.3,0.7-0.7V8.2c0-1.7-1.5-3-3.1-2.9c-0.3,0-0.6-0.2-0.6-0.4
		C215.2,3,214,2.1,212,2.1h-7.3c-3.1,0-5.6,2.5-5.6,5.6V13c0,0.8,0.3,1.4,0.8,1.9c-0.7,0.7-1.1,1.6-1.1,2.5c0,1.7,1.4,3.3,3.3,3.4
		c0.3,2.1,1.4,4,3.1,5.2v2c-1.9,0.8-7.8,3-9.7,3.8l0,0c-2,0.8-4.2,3.2-4.2,6.5v11.3C191.1,50.7,192,51.6,193.1,51.6 M217.4,15.8
		c0.2,0,0.5-0.1,0.6-0.2c0.7,0.3,1.1,1.1,1.1,1.9c0,1-0.8,1.8-1.8,2L217.4,15.8L217.4,15.8z M202,19.4c-1-0.2-1.8-1-1.8-1.9
		c0-0.7,0.4-1.4,1.1-1.8c0.3,0.1,0.5,0.1,0.7,0.1V19.4z M235.3,48.5v0.8c0,0.5-0.4,0.8-0.8,0.8H209c-0.5,0-0.8-0.4-0.8-0.8v-0.8
		H235.3z M211.1,28c-1.3,0-2.3,0.9-2.6,2.1l-1.9-1.9c0-0.1,0,0.1,0-1.2c1,0.5,2.1,0.6,3.2,0.6c1.1,0,2.1-0.2,3-0.6v1H211.1z
		 M203.4,20v-4.2h6.7c1.6,0,3.1-0.7,4.1-1.8c0.3,0.7,0.9,1.3,1.6,1.6l0,0V20c0,2.1-1.1,4-2.8,5.2C209,27.8,203.4,25,203.4,20
		 M205.7,29.3l2.7,2.7v1.4l-0.7,0.7c-0.1,0.1-0.3,0.1-0.3,0l-3.9-3.9L205.7,29.3z M192.6,38.3c0-2.8,2-4.6,3.3-5.2l6-2.4l4.4,4.4
		c0.6,0.6,1.4,0.6,2.1,0.2v10.5c0,0.4,0.1,0.8,0.3,1.2h-0.9c-0.6,0-1.1,0.5-1.1,1.1v1.2c0,0.3,0.1,0.6,0.2,0.8h-8.2V39.3
		c0-0.4-0.3-0.7-0.7-0.7s-0.7,0.3-0.7,0.7v1.8h-4.7L192.6,38.3L192.6,38.3z M192.6,42.6h4.7v1.8h-4.7V42.6z M192.6,45.8h4.7v4.3
		h-4.1c-0.3,0-0.5-0.2-0.5-0.5L192.6,45.8L192.6,45.8z"/>
	<path class="st0" d="M213.6,34.7c-0.4,0.2-0.7,0.6-0.7,1.1s0.3,0.9,0.7,1.1l1.7,0.8v4c0,0.7,0.4,1.3,0.9,1.6
		c3.1,1.7,6.9,1.7,10.1,0c0.2-0.1,0.4-0.2,0.5-0.4v0.2c-0.2,0.9,0.5,1.9,1.4,1.9h1.4c1,0,1.7-0.9,1.4-1.9l-0.3-1.2
		c-0.1-0.6-0.6-1-1.1-1.2v-4.9c0-0.5-0.3-0.9-0.7-1.1l-6.8-3.4c-0.5-0.3-1.2-0.3-1.7,0L213.6,34.7z M228.9,42.1
		c0.2,0,0.4,0.1,0.4,0.3l0.3,1.2v0.1h-1.4c0,0,0,0,0-0.1l0.3-1.2C228.5,42.2,228.7,42.1,228.9,42.1 M227.3,37.8l0.9-0.5v3.4
		c-0.4,0.2-0.7,0.4-0.9,0.8V37.8z M225.8,41.8c0,0.1-0.1,0.3-0.2,0.3c-2.7,1.5-6,1.5-8.7,0c-0.1-0.1-0.2-0.2-0.2-0.3v-3.2l3.7,1.8
		c0.5,0.3,1.2,0.3,1.7,0l3.7-1.8V41.8z M221.5,32.6l5,2.5h-5.2c-0.4,0-0.7,0.3-0.7,0.7s0.3,0.7,0.7,0.7h5.2c-0.5,0.3-4.4,2.2-5,2.5
		c-0.1,0.1-0.3,0.1-0.4,0l-6.4-3.2l6.4-3.2C221.2,32.6,221.4,32.6,221.5,32.6"/>
</g>
<g>
	<path class="st1" d="M313.6,10c-7.8,0-14.1,6.6-14.1,14.7c0,3,0.9,6,2.7,8.4c0.3,0.5,0.7,1,1.1,1.5c1.8,2.4,3.4,4.8,4.1,7.7
		c-0.5,0-0.9,0.4-0.8,0.9c0,0.5,0.4,0.9,0.9,0.8h0.4c0.1,0.8,0.2,1.7,0.2,2.5v0.1v0.1v0.1v0.1V47v0.1l0.1,0.1v0.1l0.1,0.1h0.1h0.1
		h0.1h0.1h0.1c0.1,0,0.1,0,0.2,0h9.5c0.1,0,0.1,0,0.2,0h0.1h0.1h0.1h0.1h0.1l0.1-0.1v-0.1L319,47v-0.1v-0.1c0,0,0,0,0-0.1v-0.1v-0.1
		v-0.1c0-0.8,0.1-1.7,0.3-2.5h0.4c0.5,0,0.9-0.4,0.9-0.9s-0.4-0.9-0.9-0.9c0.6-2.8,2.4-5.5,4.1-8c0.5-0.7,1-1.5,1.5-2.3
		c1.1-1.8,2.3-4.3,2.3-7.3C327.7,16.6,321.4,10,313.6,10 M317.5,45.6h-7.8c0-0.7-0.1-1.2-0.1-1.6h8.1
		C317.6,44.4,317.5,44.9,317.5,45.6L317.5,45.6z M312.6,33.9c-0.4-0.9-0.8-1.6-1.4-2.4c0.4,0.1,0.8,0.3,1.1,0.5l0,0
		c0,0,0.1,0,0.1,0.1h0.1c0.1,0,0.1,0,0.2,0h1.8c0.1,0,0.1,0,0.2,0h0.1c0,0,0.1,0,0.1-0.1l0,0c0.4-0.2,0.7-0.4,1.1-0.5
		c-0.6,0.7-1.1,1.5-1.4,2.3h-2L312.6,33.9L312.6,33.9z M314.5,41.9h-1.8v-6.2h1.8V41.9z M323.9,31c-0.4,0.7-0.9,1.4-1.5,2.2
		c-1.9,2.8-3.8,5.7-4.5,9h-1.7v-7.4c0-0.1,0-0.1,0-0.2c0.6-1.3,1.5-2.5,2.6-3.4c0.8,0.1,1.5,0.3,2.1,0.8c0.4,0.3,0.9,0.2,1.2-0.2
		c0.3-0.4,0.2-0.9-0.2-1.2c-0.1-0.1-3.3-2.5-7.8-0.2h-1.4c-4.6-2.3-7.7,0.1-7.8,0.2c-0.4,0.3-0.5,0.9-0.2,1.2
		c0.3,0.4,0.9,0.5,1.2,0.2c0.6-0.4,1.4-0.7,2.1-0.8c1.2,0.9,2.1,2.1,2.6,3.4c0,0.1,0,0.1,0,0.2v7.4h-1.8c-0.8-3.4-2.7-6.1-4.5-8.7
		c-0.3-0.5-0.7-1-1-1.5c-1.5-2.2-2.3-4.8-2.3-7.4c0-7.1,5.5-12.9,12.4-12.9c6.8,0,12.4,5.8,12.4,12.9C326,26.7,325.3,28.6,323.9,31"
		/>
	<path class="st1" d="M316.9,48.9h-6.6c-0.5,0-0.9,0.4-0.9,0.9s0.4,0.9,0.9,0.9h6.6c0.5,0,0.9-0.4,0.9-0.9
		C317.8,49.2,317.4,48.9,316.9,48.9"/>
	<path class="st1" d="M303.1,50.7h-2.2c-3.4,0-6.1-2.7-6.2-6v-4.1c0-1.6-1.3-2.9-3-2.9c-1,0-1.9-0.8-1.9-1.8c0-0.3,0.1-0.7,0.3-1
		l3.7-6.3v-0.1c0.3-0.6,0.4-1.2,0.4-1.8c0.4-11.5,8.9-20.5,19.4-20.5c0.5,0,0.9-0.4,0.9-0.9s-0.4-0.9-0.9-0.9
		c-11.5,0-20.8,9.8-21.2,22.3c0,0.4-0.1,0.8-0.3,1.1l-3.6,6.3c-0.4,0.6-0.5,1.3-0.5,2c0.1,1.9,1.8,3.4,3.7,3.4
		c0.7,0,1.2,0.5,1.2,1.2v4.1c0,4.3,3.6,7.8,8,7.8h2.1c3.3,0.3,4.9,1.6,4.9,4c0,0.5,0.4,0.9,0.9,0.9s0.9-0.4,0.9-0.9
		C309.7,53.1,307.3,51,303.1,50.7"/>
	<path class="st1" d="M308.7,59.1c0.5,0,0.9,0.4,0.9,0.9s-0.4,0.9-0.9,0.9s-0.9-0.4-0.9-0.9S308.2,59.1,308.7,59.1"/>
	<path class="st1" d="M321.1,18.6c-0.6-0.4-3.5-2.2-7.5-0.2c-4.1-1.9-7-0.2-7.5,0.2c-0.2,0.1-0.3,0.4-0.4,0.6l-1,8.4
		c-0.1,0.5,0.3,0.9,0.8,1c0.2,0,0.5,0,0.6-0.2c0.1-0.1,2.5-1.8,6.1,0.1c0.1,0.1,0.3,0.1,0.4,0.1h1.8c0.1,0,0.3,0,0.4-0.1
		c3.6-1.9,6-0.2,6.1-0.1c0.4,0.3,0.9,0.2,1.2-0.1c0.1-0.2,0.2-0.4,0.2-0.7l-0.9-8.4C321.5,19,321.3,18.7,321.1,18.6 M312.7,26.8
		c-2.6-1.2-4.7-1-6-0.5l0.7-6.4c0.8-0.4,2.7-1.1,5.3,0.1V26.8z M314.5,26.8v-6.9c2.6-1.2,4.5-0.5,5.3-0.1l0.7,6.4
		C319.2,25.8,317.1,25.5,314.5,26.8"/>
</g>
<g>
	<path class="st0" d="M411.7,23.6v-1.5h-12.6V9.5h-1.5v12.6h-15.5V9.5h-1.5v12.6h-13.3v1.5h13.3V28h-3.8c-0.1,0-0.3,0-0.4,0.1
		l-5.6,3c-0.2,0.1-0.4,0.4-0.4,0.7s0.1,0.5,0.4,0.7l5.6,3c0.1,0.1,0.2,0.1,0.4,0.1h3.8V40h-13.3v1.5h13.3v12.6h1.5V41.3h15.5v12.6
		h1.5V41.3h12.6v-1.5h-12.6v-4.4h8.9c0.4,0,0.7-0.3,0.7-0.7v-5.9c0-0.4-0.3-0.7-0.7-0.7h-8.9v-4.4L411.7,23.6L411.7,23.6z M377,29.5
		h25.9V31H380v1.5h22.9V34h-25.1v-3h-1.5v2.6l-3.5-1.8L377,29.5z M397.7,39.8h-15.5v-4.4h15.5V39.8z M407.3,33.9h-3v-4.4h3V33.9z
		 M397.7,28h-15.5v-4.4h15.5V28z"/>
	<path class="st0" d="M405.8,43c-2.4,0-4.4,1.9-4.4,4.4s1.9,4.4,4.4,4.4c2.4,0,4.4-1.9,4.4-4.4S408.3,43,405.8,43 M405.8,50.2
		c-1.6,0-2.9-1.3-2.9-2.9c0-1.6,1.3-2.9,2.9-2.9s2.9,1.3,2.9,2.9C408.7,49,407.4,50.2,405.8,50.2"/>
	<polygon class="st0" points="387.7,19.8 390.2,17.2 392.9,19.9 393.9,18.8 391.3,16.2 393.9,13.6 392.8,12.6 390.2,15.1 
		387.7,12.6 386.7,13.7 389.2,16.2 386.6,18.8 	"/>
	<polygon class="st0" points="377.7,45.4 376.6,44.3 374,46.9 371.5,44.3 370.4,45.4 373,48 370.4,50.5 371.4,51.6 374,49 
		376.6,51.6 377.7,50.6 375.1,48 	"/>
	<rect x="401.4" y="13.2" class="st0" width="5.2" height="1.5"/>
	<rect x="401.4" y="16.9" class="st0" width="8.9" height="1.5"/>
	<rect x="388.8" y="48.7" class="st0" width="5.2" height="1.5"/>
	<rect x="385.1" y="45" class="st0" width="8.9" height="1.5"/>
	<path class="st0" d="M374.1,20c2.4,0,4.4-1.9,4.4-4.4s-1.9-4.4-4.4-4.4c-2.4,0-4.4,1.9-4.4,4.4S371.6,20,374.1,20 M374.1,12.7
		c1.6,0,2.9,1.3,2.9,2.9s-1.3,2.9-2.9,2.9s-2.9-1.3-2.9-2.9S372.4,12.7,374.1,12.7"/>
</g>
<g>
	<path class="st0" d="M469.9,7.5c-0.9,0-1.7,0.3-2.4,1c-0.6,0.6-1,1.5-1,2.4c0,1.9-0.7,3.7-1.9,5c0.1-0.4,0.1-0.8,0.1-1.2
		c0-3.2-2.6-5.8-5.8-5.8c-3.2,0-5.8,2.6-5.8,5.8c0,0.4,0,0.8,0.1,1.2c-1.2-1.3-1.9-3.1-1.9-5c0-1.8-1.5-3.3-3.3-3.3
		s-3.3,1.5-3.3,3.3c0,5.6,3.2,10.6,8.2,12.9v10.7l0,0v17.2c0,0.6,0.5,1,1,1c0.6,0,1-0.5,1-1V35.5h9.4v12c0,0.6,0.5,1,1,1
		c0.6,0,1-0.5,1-1V23c1-0.6,1.8-1.3,2.6-2.1c2.7-2.7,4.2-6.3,4.2-10.1C473.2,9,471.7,7.5,469.9,7.5 M458.9,10.9
		c2.1,0,3.8,1.7,3.8,3.8s-1.7,3.8-3.8,3.8s-3.8-1.7-3.8-3.8C455.2,12.6,456.8,10.9,458.9,10.9 M467.6,19.5c-0.8,0.8-1.7,1.5-2.7,2.1
		c-0.3,0.2-0.5,0.5-0.5,0.9v11H455V23.1c0-0.4-0.3-0.8-0.6-1c-4.6-1.9-7.5-6.3-7.5-11.3c0-0.7,0.6-1.3,1.3-1.3
		c0.7,0,1.3,0.6,1.3,1.3c0,5.4,4.4,9.7,9.7,9.7c2.6,0,5-1,6.9-2.8c1.8-1.8,2.8-4.3,2.8-6.9c0-0.3,0.1-0.6,0.4-0.9
		c0.2-0.2,0.5-0.4,0.9-0.4c0.7,0,1.3,0.6,1.3,1.3C471.1,14.1,469.9,17.1,467.6,19.5"/>
	<path class="st0" d="M465.3,50.6c-0.3,0-0.5,0.1-0.7,0.3s-0.3,0.5-0.3,0.7c0,0.3,0.1,0.5,0.3,0.7s0.5,0.3,0.7,0.3
		c0.3,0,0.5-0.1,0.7-0.3s0.3-0.5,0.3-0.7c0-0.3-0.1-0.5-0.3-0.7S465.6,50.6,465.3,50.6"/>
	<path class="st0" d="M459.6,39.8c-0.6,0-1,0.5-1,1v10.9c0,0.6,0.5,1,1,1c0.6,0,1-0.5,1-1V40.8C460.6,40.2,460.2,39.8,459.6,39.8"/>
	<path class="st0" d="M494.7,21.8c-0.9,0-1.7,0.3-2.4,1c-0.6,0.6-1,1.5-1,2.4c0,1.9-0.7,3.7-1.9,5c0.1-0.4,0.1-0.8,0.1-1.2
		c0-3.2-2.6-5.8-5.8-5.8c-3.2,0-5.8,2.6-5.8,5.8c0,0.4,0,0.8,0.1,1.2c-1.2-1.3-1.9-3.1-1.9-5c0-1.8-1.5-3.3-3.3-3.3
		s-3.3,1.5-3.3,3.3c0,1.3,0.2,2.5,0.5,3.8c0.2,0.6,0.7,0.9,1.3,0.7c0.6-0.2,0.9-0.7,0.7-1.3c-0.3-1-0.4-2.1-0.4-3.2
		c0-0.7,0.6-1.3,1.3-1.3c0.7,0,1.3,0.6,1.3,1.3c0,5.4,4.4,9.7,9.7,9.7c2.6,0,5-1,6.9-2.8c1.8-1.8,2.9-4.3,2.9-6.9
		c0-0.3,0.1-0.6,0.4-0.9c0.2-0.2,0.6-0.4,0.9-0.4c0.7,0,1.3,0.6,1.3,1.3c0,3.3-1.3,6.3-3.6,8.6c-0.8,0.8-1.7,1.5-2.7,2.1
		c-0.3,0.2-0.5,0.5-0.5,0.9v11h-9.4V37.3c0-0.4-0.3-0.8-0.6-1c-1-0.4-2-1-2.8-1.7c-0.5-0.4-1.1-0.3-1.5,0.2s-0.3,1.1,0.2,1.5
		c0.8,0.7,1.7,1.2,2.7,1.7v10.7l0,0v2.9c0,0.6,0.5,1,1,1c0.6,0,1-0.5,1-1v-1.9h9.4v1.9c0,0.6,0.5,1,1,1c0.6,0,1-0.5,1-1V37.3
		c1-0.6,1.8-1.3,2.6-2.1c2.7-2.7,4.2-6.3,4.2-10.1C498,23.2,496.5,21.8,494.7,21.8 M483.7,25.2c2.1,0,3.8,1.7,3.8,3.8
		s-1.7,3.8-3.8,3.8c-2.1,0-3.8-1.7-3.8-3.8C479.9,26.9,481.6,25.2,483.7,25.2"/>
	<path class="st0" d="M473.6,31.9c-0.3-0.5-1-0.6-1.4-0.3c-0.5,0.3-0.6,1-0.3,1.4l0,0c0.2,0.3,0.5,0.5,0.9,0.5
		c0.2,0,0.4-0.1,0.6-0.2C473.8,33.1,473.9,32.4,473.6,31.9L473.6,31.9z"/>
</g>
<g>
	<path class="st1" d="M22.3,89L22.3,89C15.5,89,10,94.5,10,101.2c0,2.7,0.9,5.2,2.3,7.2l-1.5,4.5l4.7-1.5c1.9,1.3,4.2,2,6.7,2
		c6.7,0,12.2-5.5,12.2-12.2C34.5,94.5,29,89,22.3,89"/>
	<path class="st2" d="M29.4,106.3c-0.3,0.8-1.5,1.5-2.4,1.7c-0.6,0.1-1.5,0.2-4.3-0.9c-3.6-1.5-5.9-5.1-6.1-5.4
		c-0.2-0.2-1.5-1.9-1.5-3.7c0-1.8,0.9-2.6,1.3-3c0.3-0.3,0.8-0.4,1.3-0.4c0.2,0,0.3,0,0.4,0c0.4,0,0.5,0,0.8,0.6
		c0.3,0.7,1,2.5,1.1,2.6c0.1,0.2,0.2,0.4,0.1,0.7c-0.1,0.2-0.2,0.4-0.4,0.6c-0.2,0.2-0.4,0.4-0.5,0.6c-0.2,0.2-0.4,0.4-0.1,0.8
		c0.2,0.4,0.9,1.5,2,2.5c1.4,1.2,2.5,1.6,2.9,1.8c0.3,0.1,0.6,0.1,0.9-0.1c0.3-0.3,0.6-0.8,1-1.3c0.2-0.3,0.6-0.4,0.9-0.3
		c0.3,0.1,2.1,1,2.4,1.2c0.4,0.2,0.6,0.3,0.7,0.4C29.7,104.7,29.7,105.4,29.4,106.3"/>
</g>
</svg>
