<svg xmlns="http://www.w3.org/2000/svg" width="32.593" height="11.367" viewBox="0 0 32.593 11.367"><defs><style>.a{fill:#fff;}</style></defs><g transform="translate(-637.116 -414.382)"><path class="a" d="M664.364,425.749a.753.753,0,0,1-.574-1.239l3.368-3.975c-.894.043-2.168.08-4,.11-3.423.05-21.125.045-25.3-.015a.753.753,0,0,1,.022-1.505c4.16.06,21.848.065,25.255.015,2.035-.033,3.326-.077,4.146-.12l-3.51-3.339a.753.753,0,0,1,1.038-1.091l4.664,4.438a.756.756,0,0,1,.231.45h0c0,.02,0,.041.005.061a.75.75,0,0,1-.164.507l-.015.018-4.59,5.418A.754.754,0,0,1,664.364,425.749Z"/></g></svg>