<svg xmlns="http://www.w3.org/2000/svg" width="20.507" height="20.511" viewBox="0 0 20.507 20.511"><defs><style>.a{fill:#585858;}</style></defs><g transform="translate(-2059 -882.054)"><g transform="translate(2059 882.054)"><path class="a" d="M-143.981-25.9a10.271,10.271,0,0,1-8.691-5.622,10.234,10.234,0,0,1-1.066-3.7,12.5,12.5,0,0,1,0-1.87,10.247,10.247,0,0,1,3.043-6.394,10.238,10.238,0,0,1,6.24-2.889,12.5,12.5,0,0,1,1.87,0,10.238,10.238,0,0,1,6.24,2.889A10.247,10.247,0,0,1-133.3-37.09a12.5,12.5,0,0,1,0,1.87,10.238,10.238,0,0,1-2.889,6.24,10.247,10.247,0,0,1-6.377,3.04c-.32.031-1.129.052-1.414.038Zm4.712-3.847v-1.233h-8.5v2.466h8.5Zm-1.093-6.666,3.148-3.148-.872-.879c-.48-.484-.877-.881-.882-.882s-.75.737-1.654,1.641l-1.644,1.644-.005-2.887-.005-2.887h-2.446v2.9c0,1.593-.007,2.9-.015,2.9s-.754-.74-1.657-1.644-1.648-1.644-1.654-1.644-1.746,1.733-1.746,1.754,6.256,6.286,6.276,6.286,1.427-1.416,3.158-3.148Z" transform="translate(153.774 46.408)"/></g></g></svg>