<svg xmlns="http://www.w3.org/2000/svg" width="19.489" height="19" viewBox="0 0 19.489 19"><defs><style>.a{fill:#fff;}</style></defs><g transform="translate(-1035.797 85)"><path class="a" d="M14.49,29.263a5.829,5.829,0,0,1,0-8.411A17.122,17.122,0,0,0,8.9,24.8a.388.388,0,0,0,0,.518A17.105,17.105,0,0,0,14.49,29.263Z" transform="translate(1027 -100.556)"/><path class="a" d="M38.833,20.86a5.829,5.829,0,0,1,0,8.4,17.093,17.093,0,0,0,5.585-3.944.388.388,0,0,0,0-.518A17.111,17.111,0,0,0,38.833,20.86Z" transform="translate(1010.768 -100.56)"/><path class="a" d="M28.065,26.415a1.647,1.647,0,1,0,1.645,1.649A1.652,1.652,0,0,0,28.065,26.415Z" transform="translate(1017.478 -103.562)"/><path class="a" d="M24.046,18.977a5.067,5.067,0,1,0,5.067,5.067A5.072,5.072,0,0,0,24.046,18.977Zm0,7.491a2.426,2.426,0,1,1,2.424-2.424A2.428,2.428,0,0,1,24.046,26.468Z" transform="translate(1021.498 -99.543)"/><path class="a" d="M39.949,11.766a.39.39,0,1,0-.655-.422L37.713,13.8a.39.39,0,1,0,.655.422Z" transform="translate(1011.406 -95.321)"/><path class="a" d="M18.859,14.223a.39.39,0,0,0,.655-.422l-1.58-2.457a.39.39,0,1,0-.655.422Z" transform="translate(1022.45 -95.321)"/><path class="a" d="M29.933,12.657V9.718a.39.39,0,0,0-.78,0v2.939a.39.39,0,1,0,.78,0Z" transform="translate(1015.999 -94.328)"/><path class="a" d="M38.368,41.971a.39.39,0,1,0-.655.422l1.58,2.458a.39.39,0,1,0,.655-.422Z" transform="translate(1011.406 -111.873)"/><path class="a" d="M19.4,41.853a.389.389,0,0,0-.539.117l-1.58,2.458a.39.39,0,1,0,.655.422l1.58-2.458A.389.389,0,0,0,19.4,41.853Z" transform="translate(1022.45 -111.872)"/><path class="a" d="M29.933,45.909V42.97a.39.39,0,1,0-.78,0v2.939a.39.39,0,1,0,.78,0Z" transform="translate(1015.999 -112.299)"/></g></svg>