<svg xmlns="http://www.w3.org/2000/svg" width="16.728" height="20.852" viewBox="0 0 16.728 20.852"><defs><style>.a{fill:#585858;}.b{fill:#fff;}</style></defs><g transform="translate(-1674.89 -785.659)"><g transform="translate(1674.89 785.659)"><path class="a" d="M29.678,14.453h-.765v-2.8a6.649,6.649,0,1,0-13.3,0v2.8H14.85a.954.954,0,0,0-.95.95v9.5a.954.954,0,0,0,.95.95H29.678a.954.954,0,0,0,.95-.95V15.4A.954.954,0,0,0,29.678,14.453ZM18.3,11.649a3.962,3.962,0,1,1,7.924,0v2.8H18.3Zm4.935,8.874v2.016a.973.973,0,0,1-1.946,0V20.523a1.733,1.733,0,0,1-.741-1.413,1.714,1.714,0,1,1,2.688,1.413Z" transform="translate(-13.9 -5)"/></g><rect class="b" width="5" height="3" transform="translate(1686 792)"/></g></svg>