<svg xmlns="http://www.w3.org/2000/svg" width="14.176" height="17.72" viewBox="0 0 14.176 17.72"><defs><style>.a{fill:#fff;}</style></defs><g transform="translate(-1023 202)"><g transform="translate(1023 -202)"><path class="a" d="M13.609,17.72H.567A.567.567,0,0,1,0,17.153V.567A.567.567,0,0,1,.567,0H10.26V3.23a.686.686,0,0,0,.686.686h3.23V17.153A.567.567,0,0,1,13.609,17.72ZM2.555,11.483h.72V10.5h.547A1.171,1.171,0,0,0,5.147,9.35V9.34A1.122,1.122,0,0,0,3.893,8.208H2.555Zm.72-1.623v-1h.557c.36,0,.585.173.585.5v.009a.507.507,0,0,1-.571.5Zm2.4,1.623H6.957A1.639,1.639,0,0,0,8.7,9.846V9.836a1.632,1.632,0,0,0-1.74-1.628H5.68ZM6.957,8.858a.941.941,0,0,1,.987.987v.009a.933.933,0,0,1-.987.978H6.4V8.858Zm2.381,2.624h.72V10.215h1.563V9.56H10.059v-.7h1.773V8.208H9.338Zm1.294-8.506V0l3.544,3.544H11.2A.567.567,0,0,1,10.632,2.977Z"/></g></g></svg>