<svg xmlns="http://www.w3.org/2000/svg" width="67.05" height="110.154" viewBox="0 0 67.05 110.154"><defs><style>.a{fill:#003394;}</style></defs><path class="a" d="M28.88,402.59c3.387.321,1.867,12.25,3.024,14.5,4.325-7.42,9.924-14.255,15-21.194,2.6-3.558,5.263-7.062,7.758-10.692,2.057-2.992,6.678-7.417,7.265-11-1.236-.072-3.435,1.386-4.621,1.879-2.074.861-4.15,1.722-6.244,2.533-3.418,1.325-8.412,3.871-11.876,1.32-6-4.419,3.788-12.745,6.81-15.8,10.924-11.053,21.351-22.669,31.821-34.146a99.962,99.962,0,0,1,8.537-8.412c.961-.827,8.079-5.62,7.384-.985-.256,1.712-5.041,4.173-6.48,5.491a103.945,103.945,0,0,0-8.035,8.528C73.653,341,68,347.331,62.458,353.753c-5.179,6-11.724,12.027-15.727,18.849,6.667,0,14.3-9.421,21.2-6.178,7.494,3.526-1.466,14.926-4.085,19.062-4.322,6.824-9.224,13.349-14.021,19.844-2.2,2.981-4.62,5.756-6.936,8.638-1.423,1.772-5.856,5.373-5.952,7.363a103.278,103.278,0,0,1,11.081-2.883c1.958-.41,8.741-1.986,9.7.567,1.312,3.477-16.773,6.309-19.64,7.206-2.574.8-7.651,3.915-10.252,1.808-1.645-1.332-1-6.615-.8-8.475C27.154,418.359,27.46,402.456,28.88,402.59Z" transform="translate(-26.734 -318.595)"/></svg>