<?xml version="1.0" encoding="utf-8"?>
<!-- Generator: Adobe Illustrator 22.0.1, SVG Export Plug-In . SVG Version: 6.00 Build 0)  -->
<svg version="1.1" id="Layer_1" xmlns="http://www.w3.org/2000/svg" xmlns:xlink="http://www.w3.org/1999/xlink" x="0px" y="0px"
	 viewBox="0 0 500 500" style="enable-background:new 0 0 500 500;" xml:space="preserve">
<style type="text/css">
	.st0{fill:#03A9F4;}
	.st1{fill:#FFFFFF;}
</style>
<path class="st0" d="M31.3,7.7L31.3,7.7l-6.4-6.3c-0.5-0.5-1.2-0.5-1.7,0s-0.5,1.2,0,1.7l4.3,4.3H1.7C1,7.4,0.5,7.9,0.5,8.6
	S1,9.8,1.7,9.8h25.8l-4.3,4.3c-0.5,0.5-0.5,1.2,0,1.7c0.5,0.5,1.2,0.5,1.7,0l6.4-6.3l0,0C31.8,8.9,31.8,8.1,31.3,7.7"/>
<path class="st1" d="M73.9,14.5c0.4,0.4,0.4,1.1,0,1.6c-0.2,0.2-0.5,0.3-0.8,0.3c-0.3,0-0.6-0.1-0.8-0.3l-5.8-5.9l-5.8,5.9
	c-0.2,0.2-0.5,0.3-0.8,0.3c-0.3,0-0.6-0.1-0.8-0.3c-0.4-0.4-0.4-1.1,0-1.6l5.9-5.9l-5.7-5.8c-0.4-0.4-0.4-1.1,0-1.6
	c0.4-0.4,1.1-0.4,1.6,0L66.4,7l5.8-5.9c0.4-0.4,1.1-0.4,1.6,0c0.4,0.4,0.4,1.1,0,1.6L68,8.6L73.9,14.5z"/>
</svg>
